<?xml version="1.0" encoding="UTF-8" standalone="no"?>
<svg
   viewBox="0 0 512 512"
   version="1.1"
   id="svg1"
   sodipodi:docname="tr-process.svg"
   inkscape:version="1.4.2 (f4327f4, 2025-05-13)"
   width="512"
   height="512"
   xmlns:inkscape="http://www.inkscape.org/namespaces/inkscape"
   xmlns:sodipodi="http://sodipodi.sourceforge.net/DTD/sodipodi-0.dtd"
   xmlns="http://www.w3.org/2000/svg"
   xmlns:svg="http://www.w3.org/2000/svg">
  <defs
     id="defs1">
    <linearGradient
       id="swatch5"
       inkscape:swatch="solid">
      <stop
         style="stop-color:#ff8900;stop-opacity:1;"
         offset="0"
         id="stop5" />
    </linearGradient>
    <inkscape:path-effect
       effect="fillet_chamfer"
       id="path-effect4"
       is_visible="true"
       lpeversion="1"
       nodesatellites_param="F,0,0,1,0,0,0,1 @ F,0,0,1,0,0,0,1 @ F,0,0,1,0,0,0,1 @ F,0,0,1,0,0,0,1 @ F,0,0,1,0,0,0,1 @ F,0,0,1,0,0,0,1 | F,0,0,1,0,0,0,1 @ F,0,0,1,0,0,0,1 @ F,0,0,1,0,0,0,1 @ F,0,0,1,0,15.124503,0,1 @ F,0,0,1,0,0,0,1 @ F,0,1,1,0,0,0,1 @ F,0,0,1,0,0,0,1 @ F,0,0,1,0,0,0,1"
       radius="0"
       unit="px"
       method="auto"
       mode="F"
       chamfer_steps="1"
       flexible="false"
       use_knot_distance="true"
       apply_no_radius="true"
       apply_with_radius="true"
       only_selected="false"
       hide_knots="false" />
    <inkscape:path-effect
       effect="fillet_chamfer"
       id="path-effect1"
       is_visible="true"
       lpeversion="1"
       nodesatellites_param="F,0,0,1,0,0,0,1 @ F,0,0,1,0,0,0,1 @ F,0,0,1,0,0,0,1 @ F,0,0,1,0,15.124503,0,1 @ F,0,0,1,0,0,0,1 @ F,0,1,1,0,0,0,1 @ F,0,0,1,0,0,0,1 @ F,0,0,1,0,0,0,1"
       radius="0"
       unit="px"
       method="auto"
       mode="F"
       chamfer_steps="1"
       flexible="false"
       use_knot_distance="true"
       apply_no_radius="true"
       apply_with_radius="true"
       only_selected="false"
       hide_knots="false" />
    <inkscape:path-effect
       effect="fillet_chamfer"
       id="path-effect1-5"
       is_visible="true"
       lpeversion="1"
       nodesatellites_param="F,0,0,1,0,0,0,1 @ F,0,0,1,0,0,0,1 @ F,0,0,1,0,0,0,1 @ F,0,0,1,0,15.124503,0,1 @ F,0,0,1,0,0,0,1 @ F,0,1,1,0,0,0,1 @ F,0,0,1,0,0,0,1 @ F,0,0,1,0,0,0,1"
       radius="0"
       unit="px"
       method="auto"
       mode="F"
       chamfer_steps="1"
       flexible="false"
       use_knot_distance="true"
       apply_no_radius="true"
       apply_with_radius="true"
       only_selected="false"
       hide_knots="false" />
    <inkscape:path-effect
       effect="fillet_chamfer"
       id="path-effect1-5-9"
       is_visible="true"
       lpeversion="1"
       nodesatellites_param="F,0,0,1,0,0,0,1 @ F,0,0,1,0,0,0,1 @ F,0,0,1,0,0,0,1 @ F,0,0,1,0,15.124503,0,1 @ F,0,0,1,0,0,0,1 @ F,0,1,1,0,0,0,1 @ F,0,0,1,0,0,0,1 @ F,0,0,1,0,0,0,1"
       radius="0"
       unit="px"
       method="auto"
       mode="F"
       chamfer_steps="1"
       flexible="false"
       use_knot_distance="true"
       apply_no_radius="true"
       apply_with_radius="true"
       only_selected="false"
       hide_knots="false" />
  </defs>
  <sodipodi:namedview
     id="namedview1"
     pagecolor="#ffffff"
     bordercolor="#000000"
     borderopacity="0.25"
     inkscape:showpageshadow="2"
     inkscape:pageopacity="0.0"
     inkscape:pagecheckerboard="0"
     inkscape:deskcolor="#d1d1d1"
     inkscape:zoom="1.5917969"
     inkscape:cx="269.82085"
     inkscape:cy="218.30675"
     inkscape:window-width="1920"
     inkscape:window-height="1017"
     inkscape:window-x="-8"
     inkscape:window-y="-8"
     inkscape:window-maximized="1"
     inkscape:current-layer="svg1" />
  <!--! Font Awesome Free 6.7.2 by @fontawesome - https://fontawesome.com License - https://fontawesome.com/license/free (Icons: CC BY 4.0, Fonts: SIL OFL 1.1, Code: MIT License) Copyright 2024 Fonticons, Inc. -->
  <path
     d="M 203,18 C 176.4986,17.93895 155,31.333129 155,57.833129 V 162 c 0,21.09909 11.24119,31.64866 29.19739,35.24085 8.17918,1.63627 21.80344,1.58723 30.15556,1.71047 51.09877,0.75401 103.48236,0.33017 154.30104,-0.25929 C 395.15217,198.38177 411,188.5 411,162 V 66 C 411,39.5 400.80937,18.455659 374.30798,18.394612 Z"
     id="path1"
     sodipodi:nodetypes="sssssssss"
     inkscape:path-effect="#path-effect1"
     inkscape:original-d="M 203,18 C 176.4986,17.93895 155,31.333129 155,57.833129 V 162 c 0,26.5 17.73278,36.35833 44.23068,36.69203 55.84308,1.09552 113.57809,0.64776 169.42331,0 C 395.15217,198.38177 411,188.5 411,162 V 66 C 411,39.5 400.80937,18.455659 374.30798,18.394612 Z"
     transform="matrix(0.6658106,0,0,0.92735184,61.673244,-15.655515)"
     style="fill:#008080;fill-opacity:1;stroke-width:0.999481;stroke-dasharray:none" />
  <path
     d="m 318.61486,177.81202 c -48.17169,1.43086 57.73975,115.59699 44.33536,111.04218 -43.79431,-14.88127 -36.18759,17.65229 -36.18759,17.65229 l 73.26632,31.73445 c 5.29082,2.29165 40.69134,-59.08772 26.44846,-57.54702 -24.43813,2.64357 -38.05733,22.75772 -52.41949,-18.55898 -2.63841,-7.59014 -24.66626,-85.23711 -55.44306,-84.32292 z"
     id="path1-8"
     sodipodi:nodetypes="sscssss"
     style="fill:#ffc233;fill-opacity:1;stroke-width:0.764829" />
  <path
     d="m 218.30842,176.97581 c -26.2785,-28.18453 -71.16859,84.07532 -71.16859,95.26145 0,11.18613 -12.91577,-33.58741 -14.74767,-22.65529 l -10.77788,64.31822 c -0.75125,4.48314 66.25906,-9.43441 66.25906,-20.62054 0,-11.18614 -36.67188,2.50513 -30.35834,-5.13654 44.43336,-53.78048 87.80365,-82.19793 60.79342,-111.1673 z"
     id="path1-1"
     style="fill:#ffc233;fill-opacity:1;stroke-width:0.555592" />
  <path
     d="M 203,18 C 176.50641,17.417056 155,31.333129 155,57.833129 V 162 c 0,21.09909 11.24119,31.64866 29.19739,35.24085 8.17918,1.63627 21.80344,1.58723 30.15556,1.71047 51.09877,0.75401 103.48236,0.33017 154.30104,-0.25929 C 395.15217,198.38177 411,188.5 411,162 V 66 C 411,39.5 400.80156,22.352269 374.30798,21.769325 Z"
     id="path1-6"
     sodipodi:nodetypes="sssssssss"
     inkscape:path-effect="#path-effect1-5"
     inkscape:original-d="M 203,18 C 176.50641,17.417056 155,31.333129 155,57.833129 V 162 c 0,26.5 17.73278,36.35833 44.23068,36.69203 55.84308,1.09552 113.57809,0.64776 169.42331,0 C 395.15217,198.38177 411,188.5 411,162 V 66 C 411,39.5 400.80156,22.352269 374.30798,21.769325 Z"
     transform="matrix(0.6658106,0,0,0.92735184,-82.549115,319.98674)"
     style="fill:#008080;fill-opacity:1" />
  <path
     d="M 203,18 C 176.50641,17.417056 155,31.333129 155,57.833129 V 162 c 0,21.09909 11.24119,31.64866 29.19739,35.24085 8.17918,1.63627 21.80344,1.58723 30.15556,1.71047 51.09877,0.75401 103.48236,0.33017 154.30104,-0.25929 C 395.15217,198.38177 411,188.5 411,162 V 66 C 411,39.5 400.80156,22.352269 374.30798,21.769325 Z"
     id="path1-6-7"
     sodipodi:nodetypes="sssssssss"
     inkscape:path-effect="#path-effect1-5-9"
     inkscape:original-d="M 203,18 C 176.50641,17.417056 155,31.333129 155,57.833129 V 162 c 0,26.5 17.73278,36.35833 44.23068,36.69203 55.84308,1.09552 113.57809,0.64776 169.42331,0 C 395.15217,198.38177 411,188.5 411,162 V 66 C 411,39.5 400.80156,22.352269 374.30798,21.769325 Z"
     transform="matrix(0.6658106,0,0,0.92735184,231.20754,326.47245)"
     style="fill:#008080;fill-opacity:1" />
</svg>
